<?xml version="1.0" encoding="UTF-8" standalone="no"?>
<svg
   xmlns:dc="http://purl.org/dc/elements/1.1/"
   xmlns:cc="http://creativecommons.org/ns#"
   xmlns:rdf="http://www.w3.org/1999/02/22-rdf-syntax-ns#"
   xmlns:svg="http://www.w3.org/2000/svg"
   xmlns="http://www.w3.org/2000/svg"
   width="89.595963mm"
   height="72.449539mm"
   viewBox="0 0 317.46601 256.71096"
   id="svg2"
   version="1.1">
  <defs
     id="defs4" />
  <metadata
     id="metadata7">
    <rdf:RDF>
      <cc:Work
         rdf:about="">
        <dc:format>image/svg+xml</dc:format>
        <dc:type
           rdf:resource="http://purl.org/dc/dcmitype/StillImage" />
        <dc:title></dc:title>
      </cc:Work>
    </rdf:RDF>
  </metadata>
  <g
     id="layer1"
     style="display:inline"
     transform="translate(-23.048321,-277.89338)" />
  <g
     id="layer2"
     style="display:inline"
     transform="translate(-23.048321,-277.89338)" />
  <g
     id="layer3"
     style="opacity:1"
     transform="translate(-23.048321,-277.89338)">
    <g
       id="g4266"
       transform="matrix(0.99995339,0.00965449,-0.00965449,0.99995339,3.4896155,20.47035)">
      <g
         transform="matrix(0.98731717,0.15876023,-0.15876023,0.98731717,70.182114,-10.29851)"
         id="g4932">
        <g
           id="g4912">
          <path
             id="path4316"
             d="m 218.44623,306.62006 c 0,0 18.89519,12.67042 23.28572,21.14286 4.19193,8.08919 6.32905,18.58098 3.21429,27.14285 -3.80053,10.44695 -24.28572,22.85715 -24.28572,22.85715 l -69.5,-19.85715"
             style="display:inline;opacity:1;fill:none;fill-rule:evenodd;stroke:#669900;stroke-width:5;stroke-linecap:butt;stroke-linejoin:miter;stroke-miterlimit:4;stroke-dasharray:none;stroke-opacity:1" />
          <g
             id="g4904">
            <path
               style="display:inline;fill:none;fill-rule:evenodd;stroke:#000000;stroke-width:51.06739807;stroke-linecap:round;stroke-linejoin:round;stroke-miterlimit:4;stroke-dasharray:none;stroke-opacity:1"
               d="m 171.21802,382.72756 49.88269,-38.79764"
               id="path4204" />
            <path
               style="display:inline;fill:none;fill-opacity:1;fill-rule:evenodd;stroke:#000000;stroke-width:21.8239994;stroke-linecap:round;stroke-linejoin:round;stroke-miterlimit:4.30000019;stroke-dasharray:none;stroke-opacity:1"
               d="m 51.478249,339.41079 39.290863,55.48564 70.879458,-17.65318 -25.72206,71.59191 -69.25907,15.04079"
               id="path4202" />
            <path
               id="path4223"
               d="m 245.84163,328.78196 a 24.808052,30.854889 0 0 1 18.46216,-21.11595 24.808052,30.854889 0 0 1 23.83655,9.70705 24.808052,30.854889 0 0 1 4.84552,30.60763"
               style="display:inline;opacity:1;fill:#000000;fill-opacity:1;stroke:none;stroke-width:2;stroke-linecap:round;stroke-linejoin:round;stroke-miterlimit:4;stroke-dasharray:none;stroke-dashoffset:0;stroke-opacity:1" />
            <g
               id="g4255"
               style="display:inline;stroke-width:26.74129677;stroke-miterlimit:4.30000019;stroke-dasharray:none"
               transform="matrix(0.79691976,0,0,0.83577457,56.818223,63.0865)">
              <path
                 id="path4206"
                 d="M 299.25024,433.30306 230.80012,349.47244"
                 style="fill:none;fill-rule:evenodd;stroke:#000000;stroke-width:26.74129677;stroke-linecap:round;stroke-linejoin:miter;stroke-miterlimit:4.30000019;stroke-dasharray:none;stroke-opacity:1" />
              <path
                 id="path4206-2"
                 d="M 329.45698,372.33533 230.1073,334.92332"
                 style="fill:none;fill-rule:evenodd;stroke:#000000;stroke-width:26.74129677;stroke-linecap:round;stroke-linejoin:miter;stroke-miterlimit:4.30000019;stroke-dasharray:none;stroke-opacity:1" />
            </g>
          </g>
        </g>
        <g
           id="text4251"
           style="font-style:normal;font-variant:normal;font-weight:600;font-stretch:normal;font-size:50px;line-height:125%;font-family:FreeSans;-inkscape-font-specification:'FreeSans Semi-Bold';text-align:start;letter-spacing:0px;word-spacing:0px;writing-mode:lr-tb;text-anchor:start;display:inline;fill:#669900;fill-opacity:1;stroke:none;stroke-width:1px;stroke-linecap:butt;stroke-linejoin:miter;stroke-opacity:1"
           transform="matrix(0.79799616,-0.60266253,0.60266253,0.79799616,0,0)">
          <path
             id="path4246"
             d="m -91.171298,349.33033 0,30.2 -7.5,0 0,-30.2 -11.050002,0 0,-6.25 29.200002,0 0,6.25 -10.65,0 z" />
          <path
             id="path4248"
             d="m -75.744736,352.53033 7,0 0,5.3 q 1.85,-4.5 5.7,-5.5 0.9,-0.25 1.8,-0.25 0.5,0 0.85,0.05 l 0,7.1 q -1.3,-0.2 -2.2,-0.2 -6.15,0 -6.15,6.15 l 0,14.35 -7,0 0,-27 z" />
          <path
             id="path4250"
             d="m -49.165829,380.68033 q -4.8,0 -7,-3.55 -1.2,-2 -1.2,-4.55 0.1,-7.15 7.95,-8.5 l 2.8,-0.5 q 3.25,-0.5 4.05,-0.9 1.5,-0.75 1.55,-2.25 0,-2.7 -4.05,-2.7 -3.4,0 -4.35,1.6 -0.45,0.8 -0.6,2.1 l -6.75,0 q 0.75,-9.3 11.55,-9.35 11,0.05 11.05,8.3 l 0,15 q 0,1.7 1.3,3 0.15,0.15 0.3,0.3 l 0,0.85 -7.6,0 q -0.8,-1.2 -0.8,-2.7 -3.75,3.85 -8.2,3.85 z m 8.15,-12 0,-1.9 q -1.05,0.5 -2.95,0.85 l -2.4,0.45 q -3.3,0.7 -3.85,2.5 -0.15,0.55 -0.15,1.2 0,2.45 2.45,3.1 0.65,0.15 1.35,0.15 4.35,0 5.3,-4.15 0.25,-1 0.25,-2.2 z" />
          <path
             id="path4252"
             d="m -20.545517,352.53033 0,27 -7,0 0,-27 7,0 z m 0,-9.45 0,6.25 -7,0 0,-6.25 7,0 z" />
          <path
             id="path4254"
             d="m -6.8306732,343.08033 0,36.45 -6.9999998,0 0,-36.45 6.9999998,0 z" />
        </g>
      </g>
    </g>
    <g
       transform="matrix(0.73303769,0,0,0.73303769,28.340829,98.717877)"
       id="g4922">
      <text
         id="text4255"
         y="533.59088"
         x="170.83566"
         style="font-style:normal;font-variant:normal;font-weight:normal;font-stretch:normal;font-size:25px;line-height:125%;font-family:FreeSans;-inkscape-font-specification:FreeSans;text-align:start;letter-spacing:0px;word-spacing:0px;writing-mode:lr-tb;text-anchor:start;display:inline;fill:#000000;fill-opacity:1;stroke:none;stroke-width:1px;stroke-linecap:butt;stroke-linejoin:miter;stroke-opacity:1"
         xml:space="preserve"><tspan
           style="font-style:normal;font-variant:normal;font-weight:600;font-stretch:normal;font-size:50px;font-family:FreeSans;-inkscape-font-specification:'FreeSans Semi-Bold'"
           id="tspan4259"
           y="533.59088"
           x="170.83566">&amp;</tspan></text>
      <g
         style="font-style:normal;font-variant:normal;font-weight:normal;font-stretch:normal;font-size:25px;line-height:125%;font-family:'MS Sans Serif';-inkscape-font-specification:'MS Sans Serif, Normal';text-align:start;letter-spacing:0px;word-spacing:0px;writing-mode:lr-tb;text-anchor:start;display:inline;fill:#000000;fill-opacity:1;stroke:none;stroke-width:1px;stroke-linecap:butt;stroke-linejoin:miter;stroke-opacity:1"
         id="text4263">
        <path
           d="m 218.59453,517.89088 0,9.45 19.75,0 0,6.25 -27.25,0 0,-36.45 26.35,0 0,6.25 -18.85,0 0,8.25 17.45,0 0,6.25 -17.45,0 z"
           style="font-style:normal;font-variant:normal;font-weight:600;font-stretch:normal;font-size:50px;font-family:FreeSans;-inkscape-font-specification:'FreeSans Semi-Bold';fill:#000000"
           id="path4849" />
        <path
           d="m 243.54765,506.59088 7,0 0,5.3 q 1.85,-4.5 5.7,-5.5 0.9,-0.25 1.8,-0.25 0.5,0 0.85,0.05 l 0,7.1 q -1.3,-0.2 -2.2,-0.2 -6.15,0 -6.15,6.15 l 0,14.35 -7,0 0,-27 z"
           style="font-style:normal;font-variant:normal;font-weight:600;font-stretch:normal;font-size:50px;font-family:FreeSans;-inkscape-font-specification:'FreeSans Semi-Bold';fill:#000000"
           id="path4851" />
        <path
           d="m 263.17656,506.59088 7,0 0,5.3 q 1.85,-4.5 5.7,-5.5 0.9,-0.25 1.8,-0.25 0.5,0 0.85,0.05 l 0,7.1 q -1.3,-0.2 -2.2,-0.2 -6.15,0 -6.15,6.15 l 0,14.35 -7,0 0,-27 z"
           style="font-style:normal;font-variant:normal;font-weight:600;font-stretch:normal;font-size:50px;font-family:FreeSans;-inkscape-font-specification:'FreeSans Semi-Bold';fill:#000000"
           id="path4853" />
        <path
           d="m 294.85547,506.14088 q 8.25,0 11.6,6.25 1.8,3.45 1.8,8.25 0,7.95 -5.2,11.7 -3.4,2.4 -8.15,2.4 -7.8,0 -11.25,-5.75 -2.1,-3.5 -2.1,-8.55 0,-8.3 5.35,-12.05 3.3,-2.25 7.95,-2.25 z m 0.05,5.65 q -3.65,0 -5.35,3.7 -1,2.15 -1,4.95 0,5.3 3.05,7.6 1.5,1.05 3.3,1.05 3.55,0 5.3,-3.55 1.05,-2.2 1.05,-5 0,-5.65 -3.2,-7.8 -1.4,-0.95 -3.15,-0.95 z"
           style="font-style:normal;font-variant:normal;font-weight:600;font-stretch:normal;font-size:50px;font-family:FreeSans;-inkscape-font-specification:'FreeSans Semi-Bold';fill:#000000"
           id="path4855" />
        <path
           d="m 313.46953,506.59088 7,0 0,5.3 q 1.85,-4.5 5.7,-5.5 0.9,-0.25 1.8,-0.25 0.5,0 0.85,0.05 l 0,7.1 q -1.3,-0.2 -2.2,-0.2 -6.15,0 -6.15,6.15 l 0,14.35 -7,0 0,-27 z"
           style="font-style:normal;font-variant:normal;font-weight:600;font-stretch:normal;font-size:50px;font-family:FreeSans;-inkscape-font-specification:'FreeSans Semi-Bold';fill:#000000"
           id="path4857" />
      </g>
    </g>
  </g>
</svg>
